<?xml version="1.0" encoding="iso-8859-1"?>
<!-- Uploaded to: SVG Repo, www.svgrepo.com, Generator: SVG Repo Mixer Tools -->
<svg height="800px" width="800px" version="1.1" id="Layer_1" xmlns="http://www.w3.org/2000/svg" xmlns:xlink="http://www.w3.org/1999/xlink" 
	 viewBox="0 0 512 512" xml:space="preserve">
<path style="fill:#585661;" d="M256.188,76c-30.928,0-56,21.49-56,48h112C312.188,97.49,287.116,76,256.188,76z"/>
<path style="fill:#FFD750;" d="M353.688,315.811c0,0-5.354,120-97.5,120c-95.854,0-97.5-120-97.5-120S179.481,293.821,188,276
	c7.388-15.456,5.667-43,13.637-59.664c8.74-18.272,34.342-20.525,54.551-20.525c20.832,0,40.137,8.041,55.979,21.738
	c11.409,9.863,0.501,41.412,7.595,56.252C328.281,291.622,353.688,315.811,353.688,315.811z"/>
<g>
	<path style="fill:#6B676E;" d="M333.456,293.973c-5.435-6.607-10.646-13.795-13.694-20.172c-2.916-6.1-2.79-15.021-2.423-24.102
		c-16.198,2.637-36.269,4.436-61.154,4.436c-25.312,0-45.647-1.859-61.988-4.57c-1.36,9.872-2.835,19.404-6.196,26.436
		c-2.721,5.691-6.693,11.806-10.841,17.495c17.869,4.941,43.193,9.098,79.025,9.098
		C290.855,302.593,315.694,298.701,333.456,293.973z"/>
	<path style="fill:#6B676E;" d="M351.614,328c-16.889,7.327-45.882,15.902-95.43,15.902c-49.542,0-78.533-8.573-95.424-15.899
		c2.192,20.579,5.612,36.143,15.239,51.997c16.705,5.65,44.248,10,80.184,10c35.943,0,64.111-4.349,80.816-10
		c1.062-1.749,2.028-3.495,2.932-5.244c4.434-10.566,7.457-21.082,9.507-30.249C350.308,339.327,350.989,333.873,351.614,328z"/>
</g>
<path style="fill:#585661;" d="M324.188,183.812c0,28.719-13.753,52-68,52s-68-23.281-68-52c0-28.72,13.753-52,68-52
	S324.188,155.092,324.188,183.812z"/>
<path style="fill:#6B676E;" d="M326,163.812c0,22.091-14.12,40-69.813,40s-69.813-17.909-69.813-40c0-22.092,14.12-40,69.813-40
	S326,141.72,326,163.812z"/>
<g>
	<path style="fill:#FFEBD2;" d="M464.188,259.811c-127-117.999-152.375-125.499-152.375-125.499c18.667,22,11.498,39.707,8.375,53.5
		c-16,70.665,14,113.999,32,127.999c38.517,29.957,152,67.001,152,40.001C504.188,313.811,487.498,281.47,464.188,259.811z"/>
	<path style="fill:#FFEBD2;" d="M47.813,259.811c127-117.999,152.375-125.499,152.375-125.499c-18.667,22-11.498,39.707-8.375,53.5
		c16,70.665-14,113.999-32,127.999c-38.517,29.957-152,67.001-152,40.001C7.813,313.811,24.502,281.47,47.813,259.811z"/>
</g>
<path d="M479.442,265.088c-0.653-1.666-1.856-3.096-3.455-4.014c-2.031-2.288-4.135-4.535-6.331-6.731
	c-33.1-33.1-131.245-111.548-149.792-126.311c-0.909-14.778-6.851-28.212-16.135-38.608c9.731-1.452,21.713-3.023,30.249-4.11
	l-5.824,29.117c-0.636,3.18,0.71,6.428,3.407,8.226l24,16c1.364,0.909,2.905,1.345,4.43,1.345c2.585,0,5.122-1.251,6.664-3.563
	c2.451-3.676,1.458-8.644-2.219-11.094l-19.542-13.028l6.949-34.746c0.503-2.517-0.231-5.122-1.975-7.005s-4.288-2.814-6.832-2.506
	c-1.778,0.215-42.921,5.216-56.041,7.975C277.807,70.922,267.24,68,256,68s-21.807,2.922-30.997,8.033
	c-13.119-2.759-54.263-7.76-56.041-7.975c-2.545-0.308-5.089,0.622-6.832,2.506c-1.744,1.883-2.479,4.488-1.975,7.005l6.949,34.746
	l-19.542,13.028c-3.676,2.45-4.67,7.418-2.219,11.094c1.542,2.313,4.078,3.563,6.664,3.563c1.525,0,3.066-0.436,4.43-1.345l24-16
	c2.697-1.798,4.043-5.046,3.407-8.226l-5.824-29.117c8.536,1.087,20.518,2.658,30.249,4.11
	c-9.284,10.396-15.226,23.83-16.135,38.608c-18.547,14.763-116.693,93.211-149.792,126.311c-2.196,2.196-4.3,4.443-6.331,6.731
	c-1.599,0.918-2.802,2.348-3.455,4.014C11.206,290.901,0,322.054,0,356c0,5.219,2.485,17.357,25.505,17.358c0.002,0,0.002,0,0.005,0
	c30.355,0,91.546-21.079,126.674-42.4c1.462,28.644,11.921,55.691,29.833,76.801C201.85,431.129,228.124,444,256,444
	s54.15-12.871,73.982-36.241c17.913-21.109,28.371-48.157,29.833-76.801c35.128,21.32,96.323,42.4,126.679,42.4
	C509.515,373.358,512,361.22,512,356C512,322.054,500.794,290.901,479.442,265.088z M331.97,158.246
	c30.485,24.568,81.729,66.375,112.003,93.849c-19.118-5.035-44.247-11.356-66.054-15.867
	c-18.567-20.237-40.368-42.085-49.087-50.743C330.658,178.066,332.919,168.718,331.97,158.246z M256,84
	c22.679,0,41.722,15.815,46.712,36.993C283.984,116.074,257.457,116,256,116s-27.985,0.074-46.712,4.992
	C214.278,99.814,233.321,84,256,84z M203.393,140.647c0.539-0.254,1.064-0.547,1.552-0.931C209.587,136.066,231.696,132,256,132
	c24.303,0,46.413,4.067,51.056,7.717c0.488,0.383,1.013,0.677,1.552,0.931c10.999,15.351,7.629,29.072,4.623,41.278
	c-0.368,1.494-0.722,2.932-1.033,4.308c-4.563,20.155-5.531,38.309-4.112,54.376C299.999,242.185,284.499,244,256,244
	s-43.999-1.815-52.085-3.391c1.419-16.067,0.451-34.221-4.112-54.376c-0.312-1.376-0.665-2.813-1.033-4.307
	C195.764,169.721,192.393,155.998,203.393,140.647z M201.648,256.457C214.063,258.779,232.608,260,256,260
	s41.936-1.221,54.352-3.543c1.935,9.674,4.736,18.417,8.059,26.205c-6.84,2.848-24.55,9.338-62.413,9.338
	c-37.855,0-55.565-6.488-62.408-9.336C196.912,274.875,199.713,266.131,201.648,256.457z M180.03,158.246
	c-0.949,10.472,1.312,19.82,3.139,27.239c-8.719,8.658-30.52,30.505-49.087,50.742c-21.807,4.511-46.937,10.832-66.054,15.867
	C98.301,224.621,149.545,182.814,180.03,158.246z M25.506,357.358c-6.383,0-8.823-1.121-9.506-1.536
	c0.038-30.713,9.868-57.897,29.24-80.983c9.655-2.693,40.678-11.228,70.983-18.281c-5.413,6.565-9.511,12.13-11.378,15.864
	c-4.681,9.362-15.359,44.967-16.704,70.504C64.267,351.463,40.441,357.359,25.506,357.358z M155.088,309.686
	c-11.541,8.977-30.21,18.629-50.367,26.885c2.543-22.453,11.132-50.388,14.434-56.992c5.428-10.855,40.269-47.623,67.743-75.212
	C195.017,261.163,171.492,296.928,155.088,309.686z M256,428c-27.765,0-53.019-16.139-69.281-40.743
	c14.549,5.09,36.727,10.006,69.277,10.006c32.558,0,54.737-4.918,69.287-10.01C309.021,411.859,283.767,428,256,428z
	 M336.774,364.52c-8.459,4.867-31.218,16.743-80.778,16.743c-49.542,0-72.301-11.866-80.769-16.737
	c-3.109-8.398-5.294-17.332-6.397-26.613c13.192,6.234,39.699,15.625,87.166,15.625c47.478,0,73.985-9.395,87.175-15.629
	C342.067,347.188,339.883,356.122,336.774,364.52z M342.969,320.01c-7.849,4.335-31.734,17.527-86.973,17.527
	c-55.237,0-79.124-13.192-86.973-17.527c-0.284-0.156-0.574-0.288-0.867-0.407c5.929-5.282,12.385-12.854,18.191-22.629
	c6.789,2.892,26.549,11.026,69.65,11.026c43.109,0,62.869-8.139,69.654-11.027c5.806,9.773,12.261,17.346,18.189,22.628
	C343.546,319.72,343.254,319.853,342.969,320.01z M356.912,309.686c-16.403-12.758-39.929-48.523-31.81-105.319
	c27.474,27.587,62.314,64.354,67.743,75.211c3.302,6.605,11.891,34.54,14.434,56.992
	C387.121,328.313,368.451,318.661,356.912,309.686z M486.494,357.358c-14.937,0-38.761-5.896-62.636-14.435
	c-1.345-25.535-12.022-61.139-16.703-70.502c-1.867-3.734-5.965-9.299-11.378-15.864c30.305,7.054,61.328,15.588,70.983,18.281
	c19.372,23.087,29.202,50.271,29.24,80.984C495.317,356.237,492.877,357.358,486.494,357.358z"/>
</svg>