<svg xmlns="http://www.w3.org/2000/svg" xmlns:xlink="http://www.w3.org/1999/xlink" height="800px" width="800px" version="1.1" id="Layer_1" viewBox="0 0 512.001 512.001" xml:space="preserve">
<path style="fill:#E3DCD2;" d="M503.984,183.315c0-44.866-36.37-81.236-81.236-81.236c-7.987,0-15.697,1.173-22.988,3.32  c1.053-5.219,1.61-10.617,1.61-16.147c0-44.866-36.37-81.236-81.236-81.236c-26.079,0-49.27,12.303-64.134,31.405  C241.136,20.32,217.946,8.017,191.867,8.017c-44.866,0-81.236,36.37-81.236,81.236c0,5.529,0.558,10.928,1.61,16.147  c-7.291-2.147-15.001-3.32-22.988-3.32c-44.866,0-81.236,36.37-81.236,81.236c0,30.943,17.313,57.826,42.771,71.54  c-0.002,0.383-0.015,0.762-0.015,1.145c0,113.344,91.883,205.228,205.228,205.228S461.228,369.344,461.228,256  c0-0.383-0.013-0.763-0.015-1.145C486.671,241.141,503.984,214.259,503.984,183.315z"/>
<path style="fill:#D6CABB;" d="M77.495,182.959c0-28.15,4.248-55.307,12.123-80.872c-0.122,0-0.243-0.006-0.366-0.006  c-44.866,0-81.236,36.37-81.236,81.236c0,30.943,17.313,57.826,42.771,71.54c-0.002,0.383-0.015,0.762-0.015,1.145  c0,113.344,91.883,205.228,205.228,205.228c18.605,0,36.626-2.491,53.762-7.131C178.221,433.848,77.495,320.168,77.495,182.959z"/>
<g>
	<path style="fill:#BAA78E;" d="M114.907,204.693h141.094v-68.409H50.773v4.276C50.773,175.979,79.487,204.693,114.907,204.693z"/>
	<path style="fill:#BAA78E;" d="M397.094,204.693H256.001v-68.409h205.228v4.276C461.228,175.979,432.514,204.693,397.094,204.693z"/>
</g>
<g>
	<path style="fill:#AC9578;" d="M256.001,136.284H139.919c-11.802,20.052-19.128,43.38-20.495,68.409h136.577V136.284z"/>
	<path style="fill:#AC9578;" d="M256.001,136.284v68.409h136.577c-1.367-25.029-8.693-48.357-20.495-68.409H256.001z"/>
</g>
<path style="fill:#BAA78E;" d="M167.937,136.284c-19.651,23.613-31.652,55.148-31.652,89.787  c0,73.201,53.599,132.543,119.716,132.543s119.716-59.342,119.716-132.543c0-34.64-12.002-66.175-31.653-89.788L167.937,136.284z"/>
<ellipse style="fill:#9E6D4A;" cx="256.001" cy="277.378" rx="34.205" ry="29.929"/>
<path style="fill:#754F1E;" d="M273.103,298.756c-18.891,0-34.205-13.4-34.205-29.929c0-7.99,3.585-15.242,9.415-20.609  c-15.187,3.053-26.517,14.945-26.517,29.16c0,16.529,15.314,29.929,34.205,29.929c9.76,0,18.558-3.583,24.79-9.32  C278.318,298.484,275.747,298.756,273.103,298.756z"/>
<path style="fill:#F1EDE8;" d="M315.859,110.63c-6.829,0-13.279,1.609-19.005,4.456c-5.393-17.439-21.643-30.11-40.853-30.11  s-35.461,12.671-40.853,30.11c-5.726-2.848-12.176-4.456-19.005-4.456c-23.613,0-42.756,19.143-42.756,42.756  s19.143,42.756,42.756,42.756c6.829,0,13.279-1.609,19.005-4.456c5.393,17.439,21.642,30.11,40.853,30.11  s35.461-12.671,40.853-30.11c5.726,2.848,12.176,4.456,19.005,4.456c23.613,0,42.756-19.143,42.756-42.756  S339.471,110.63,315.859,110.63z"/>
<circle style="fill:#C79F69;" cx="264.552" cy="273.102" r="8.551"/>
<path style="fill:#90BF2C;" d="M455.483,392.818c-17.102,0-45.562,25.653-45.562,25.653l-17.102-42.756l-25.653,59.858  l-25.653-34.205l-17.102,34.205l-25.653-42.756l-25.653,34.205l-17.102-42.756l-25.653,51.307l-17.102-34.205l-17.102,51.307  l-17.102-59.858l-25.653,42.756l-25.653-59.858l-17.102,42.756c0,0-34.205-25.653-51.307-25.653  c7.016,8.212,19.934,25.578,25.653,51.307c4.977,22.388,2.268,49.6,0,59.858h171.023h173.829c-2.268-10.258-4.977-37.47,0-59.858  C435.549,418.396,448.467,401.031,455.483,392.818z"/>
<path style="fill:#72A938;" d="M427.044,470.313H87.764c0.212,14.294-1.372,27.276-2.787,33.67h171.023h173.829  C428.416,497.589,426.831,484.607,427.044,470.313z"/>
<path d="M422.748,94.063c-4.543,0-9.072,0.347-13.552,1.036c0.127-1.946,0.191-3.897,0.191-5.846  C409.387,40.039,369.348,0,320.134,0c-24.478,0-47.368,9.806-64.134,27.197C239.235,9.806,216.345,0,191.867,0  c-49.214,0-89.253,40.039-89.253,89.253c0,1.949,0.064,3.899,0.191,5.846c-4.481-0.688-9.01-1.036-13.552-1.036  c-49.214,0-89.253,40.039-89.253,89.253c0,31.249,16.274,60.012,42.784,76.186c0.453,28.461,6.43,56.013,17.783,81.946  c9.768,22.309,23.108,42.515,39.72,60.235c-12.262-7.744-29.217-16.881-40.963-16.881c-6.698,0-10.456,8.12-6.095,13.224  c8.194,9.59,18.995,25.675,23.923,47.838c4.722,21.242,2.038,47.163-0.002,56.387c-1.09,4.93,2.784,9.748,7.828,9.748h50.951  c4.427,0,8.017-3.589,8.017-8.017c0-4.427-3.589-8.017-8.017-8.017H94.421c1.778-14.205,2.411-35.455-1.618-53.58  c-2.962-13.327-7.777-24.733-13.039-34.149c9.398,5.02,19.359,11.63,26.059,16.649c4.157,3.116,10.327,1.376,12.252-3.438  l9.914-24.785l18.03,42.068c2.524,5.889,10.943,6.469,14.243,0.966l16.147-26.912l12.026,42.092  c0.958,3.353,4.059,5.719,7.534,5.813c3.497,0.094,6.675-2.163,7.779-5.479l10.982-32.945l8.447,16.894  c2.896,5.793,11.445,5.794,14.34,0l17.67-35.34l10.472,26.18c2.277,5.695,10.169,6.749,13.856,1.833l18.5-24.667l19.519,32.533  c3.196,5.324,11.27,5.008,14.044-0.54l11.301-22.603l17.873,23.827c3.636,4.847,11.4,3.908,13.782-1.651l18.03-42.068l9.914,24.785  c2.033,5.086,8.733,6.651,12.809,2.98c4.77-4.294,11.698-9.772,18.757-14.368c-4.868,9.054-9.266,19.847-12.04,32.325  c-4.029,18.125-3.395,39.376-1.618,53.58H180.109c-4.427,0-8.017,3.589-8.017,8.017c0,4.427,3.589,8.017,8.017,8.017h249.72  c5.043,0,8.918-4.819,7.828-9.747c-2.039-9.226-4.723-35.148-0.002-56.388c4.928-22.162,15.729-38.248,23.923-47.839  c4.361-5.103,0.603-13.224-6.095-13.224c-13.717,0-31.615,12.165-42.215,20.452l-1.464-3.662  c18.346-19.624,32.649-42.177,42.507-67.045c1.631-4.116-0.383-8.775-4.498-10.407c-4.114-1.631-8.775,0.382-10.407,4.498  c-8.185,20.647-19.692,39.567-34.241,56.357l-4.903-12.257c-2.596-6.492-12.054-6.615-14.812-0.181l-20.191,47.114l-17.333-23.112  c-3.515-4.686-10.969-4.006-13.584,1.225l-10.571,21.143l-18.14-30.234c-2.876-4.795-9.929-5.162-13.287-0.685l-17.095,22.793  l-11.805-29.511c-2.514-6.288-11.581-6.674-14.613-0.608l-18.483,36.966l-9.932-19.863c-3.13-6.262-12.564-5.584-14.775,1.05  l-8.907,26.722l-9.983-34.941c-1.886-6.6-11.046-7.817-14.583-1.922l-17.587,29.311l-19.477-45.447  c-2.759-6.437-12.214-6.315-14.812,0.181l-7.529,18.823C77.879,354.816,58.79,307.067,58.79,256l0.015-1.101  c0.016-2.964-1.604-5.696-4.215-7.102c-23.783-12.812-38.556-37.519-38.556-64.482c0-40.373,32.846-73.219,73.219-73.219  c7.009,0,13.98,1.007,20.723,2.994c5.685,1.674,11.296-3.464,10.125-9.275c-0.964-4.777-1.453-9.677-1.453-14.563  c0-40.373,32.846-73.219,73.219-73.219c22.736,0,43.806,10.319,57.807,28.312c3.159,4.059,9.495,4.059,12.654,0  c14-17.993,35.07-28.312,57.807-28.312c40.373,0,73.219,32.846,73.219,73.219c0,4.886-0.488,9.786-1.452,14.563  c-1.172,5.811,4.438,10.95,10.125,9.275c6.743-1.986,13.714-2.994,20.723-2.994c40.373,0,73.219,32.846,73.219,73.219  c0,26.963-14.773,51.67-38.556,64.482c-2.609,1.406-4.231,4.138-4.215,7.102l0.014,1.101c0,11.361-0.974,22.749-2.892,33.849  c-0.755,4.363,2.171,8.511,6.533,9.265c4.36,0.756,8.511-2.171,9.265-6.533c1.878-10.858,2.918-21.969,3.099-33.079  c26.51-16.173,42.785-44.937,42.785-76.186C512.001,134.101,471.962,94.063,422.748,94.063z"/>
<path d="M469.245,140.56v-4.276c0-4.427-3.589-8.017-8.017-8.017H359.954c-8.754-15.308-25.234-25.653-44.095-25.653  c-4.999,0-9.872,0.711-14.564,2.121c-8.524-16.903-25.81-27.774-45.294-27.774s-36.77,10.871-45.294,27.774  c-4.691-1.41-9.564-2.121-14.564-2.121c-18.862,0-35.341,10.346-44.095,25.653H50.773c-4.427,0-8.017,3.589-8.017,8.017v4.276  c0,39.784,32.366,72.15,72.15,72.15h13.945c-0.383,4.429-0.584,8.888-0.584,13.361c0,7.557,0.55,15.143,1.634,22.547  c0.584,3.987,4.008,6.856,7.923,6.856c0.387,0,0.778-0.028,1.171-0.086c4.381-0.642,7.412-4.714,6.77-9.094  c-0.973-6.638-1.465-13.442-1.465-20.223c0-16.121,2.811-32.015,8.187-46.8c8.86,14.888,25.108,24.888,43.655,24.888  c4.999,0,9.872-0.711,14.564-2.121c8.524,16.903,25.809,27.774,45.294,27.774s36.77-10.871,45.294-27.774  c4.692,1.41,9.564,2.121,14.564,2.121c18.548,0,34.798-10.003,43.658-24.892c5.374,14.787,8.183,30.694,8.183,46.805  c0,65.659-45.819,119.605-103.683,124.202v-35.644c19.459-3.377,34.205-18.791,34.205-37.251c0-20.924-18.941-37.946-42.221-37.946  c-23.28,0-42.221,17.022-42.221,37.946c0,18.46,14.745,33.874,34.205,37.251v35.638c-37.093-2.989-70.799-26.558-89.294-63.026  c-2.003-3.95-6.828-5.525-10.776-3.524c-3.948,2.003-5.526,6.827-3.524,10.776c22.566,44.497,65.333,72.139,111.611,72.139  c70.433,0,127.733-63.055,127.733-140.56c0-4.471-0.199-8.931-0.581-13.361h13.943C436.879,212.71,469.245,180.344,469.245,140.56z   M229.813,277.378c0-12.083,11.748-21.912,26.188-21.912c14.44,0,26.188,9.83,26.188,21.912c0,12.083-11.748,21.912-26.188,21.912  C241.561,299.29,229.813,289.461,229.813,277.378z M131.099,196.676h-16.193c-29.685,0-54.061-23.171-55.994-52.376h87.288  c-0.536,2.95-0.831,5.984-0.831,9.086c0,0.761,0.025,1.516,0.058,2.268C138.7,168.426,133.886,182.287,131.099,196.676z   M315.859,188.125c-5.414,0-10.608-1.217-15.436-3.618c-4.362-2.168-9.792,0.166-11.228,4.81  c-4.525,14.631-17.864,24.462-33.194,24.462s-28.67-9.831-33.194-24.462c-1.436-4.644-6.864-6.979-11.228-4.81  c-4.829,2.401-10.022,3.618-15.436,3.618c-19.155,0-34.739-15.584-34.739-34.739s15.584-34.739,34.739-34.739  c5.414,0,10.608,1.217,15.436,3.618c4.362,2.169,9.792-0.166,11.228-4.81c4.525-14.631,17.864-24.462,33.194-24.462  s28.67,9.831,33.194,24.462c1.436,4.644,6.866,6.979,11.228,4.81c4.829-2.401,10.022-3.618,15.436-3.618  c19.155,0,34.739,15.584,34.739,34.739S335.013,188.125,315.859,188.125z M366.956,156.375c-0.119-0.228-0.248-0.445-0.385-0.656  c0.035-0.774,0.059-1.55,0.059-2.332c0-3.102-0.295-6.135-0.831-9.086h87.288c-1.933,29.204-26.309,52.376-55.994,52.376h-16.195  C378.164,182.556,373.484,168.936,366.956,156.375z"/>
<path d="M308.376,264.017c4.427,0,8.017-3.589,8.017-8.017c0-4.427-3.589-8.017-8.017-8.017h-1.069  c-4.427,0-8.017,3.589-8.017,8.017c0,4.427,3.589,8.017,8.017,8.017H308.376z"/>
<path d="M205.763,264.017c4.427,0,8.017-3.589,8.017-8.017c0-4.427-3.589-8.017-8.017-8.017h-1.069  c-4.427,0-8.017,3.589-8.017,8.017c0,4.427,3.589,8.017,8.017,8.017H205.763z"/>
</svg>